<?xml version="1.0"?>
<svg xmlns="http://www.w3.org/2000/svg" height="512px" viewBox="0 0 60 60" width="512px" class=""><g><g id="Page-1" fill="none" fill-rule="evenodd"><g id="073---Government-Advice" fill="rgb(0,0,0)" fill-rule="nonzero"><path id="Shape" d="m6 42c-.55228475 0-1 .4477153-1 1v2c0 .5522847.44771525 1 1 1s1-.4477153 1-1v-2c0-.5522847-.44771525-1-1-1z" data-original="#000000" class="active-path" data-old_color="#000000" fill="#FFFFFF"/><path id="Shape" d="m10 42c-.55228475 0-1 .4477153-1 1v2c0 .5522847.44771525 1 1 1 .5522847 0 1-.4477153 1-1v-2c0-.5522847-.4477153-1-1-1z" data-original="#000000" class="active-path" data-old_color="#000000" fill="#FFFFFF"/><path id="Shape" d="m6 48c-.55228475 0-1 .4477153-1 1v2c0 .5522847.44771525 1 1 1s1-.4477153 1-1v-2c0-.5522847-.44771525-1-1-1z" data-original="#000000" class="active-path" data-old_color="#000000" fill="#FFFFFF"/><path id="Shape" d="m10 48c-.55228475 0-1 .4477153-1 1v2c0 .5522847.44771525 1 1 1 .5522847 0 1-.4477153 1-1v-2c0-.5522847-.4477153-1-1-1z" data-original="#000000" class="active-path" data-old_color="#000000" fill="#FFFFFF"/><path id="Shape" d="m50 46c.5522847 0 1-.4477153 1-1v-2c0-.5522847-.4477153-1-1-1s-1 .4477153-1 1v2c0 .5522847.4477153 1 1 1z" data-original="#000000" class="active-path" data-old_color="#000000" fill="#FFFFFF"/><path id="Shape" d="m54 46c.5522847 0 1-.4477153 1-1v-2c0-.5522847-.4477153-1-1-1s-1 .4477153-1 1v2c0 .5522847.4477153 1 1 1z" data-original="#000000" class="active-path" data-old_color="#000000" fill="#FFFFFF"/><path id="Shape" d="m50 52c.5522847 0 1-.4477153 1-1v-2c0-.5522847-.4477153-1-1-1s-1 .4477153-1 1v2c0 .5522847.4477153 1 1 1z" data-original="#000000" class="active-path" data-old_color="#000000" fill="#FFFFFF"/><path id="Shape" d="m54 52c.5522847 0 1-.4477153 1-1v-2c0-.5522847-.4477153-1-1-1s-1 .4477153-1 1v2c0 .5522847.4477153 1 1 1z" data-original="#000000" class="active-path" data-old_color="#000000" fill="#FFFFFF"/><path id="Shape" d="m59 54.278v-15.278c0-1.1045695-.8954305-2-2-2h-11v-1c0-1.6568542-1.3431458-3-3-3h-1.042c-.4970308-5.8326251-5.1251036-10.4581637-10.958-10.952v-9.048c0-.5522847-.4477153-1-1-1s-1 .4477153-1 1v.307l-6 2.247c-.6030578.225756-1.0026868.802071-1.0026868 1.446s.399629 1.220244 1.0026868 1.446l6 2.247v1.355c-5.8328964.4938363-10.4609692 5.1193749-10.958 10.952h-1.042c-1.6568542 0-3 1.3431458-3 3v1h-11c-1.1045695 0-2 .8954305-2 2v15.278c-.61675126.3544126-.997855 1.0106732-1 1.722v2c0 1.1045695.8954305 2 2 2h56c1.1045695 0 2-.8954305 2-2v-2c-.002145-.7113268-.3832487-1.3675874-1-1.722zm-2-.278h-10v-9.96c-.0001845-.9780457-.477122-1.8946018-1.278-2.456l-3.686-2.584h14.964zm-15 0v-8c0-1.6568542-1.3431458-3-3-3s-3 1.3431458-3 3v8h-3v-10c0-1.6568542-1.3431458-3-3-3s-3 1.3431458-3 3v10h-3v-8c0-1.6568542-1.3431458-3-3-3s-3 1.3431458-3 3v8h-3v-9.96c-.0000472-.326133.1589443-.6317997.426-.819l14.566-10.221 14.581 10.221c.2674349.1869796.4268187.4926831.427.819v9.96zm-2 0h-2v-8c0-.5522847.4477153-1 1-1s1 .4477153 1 1zm-9 0h-2v-10c0-.5522847.4477153-1 1-1s1 .4477153 1 1zm-9 0h-2v-8c0-.5522847.4477153-1 1-1s1 .4477153 1 1zm2.844-37 4.156-1.557v3.114zm-8.844 19c0-.5522847.4477153-1 1-1h4c.5522847 0 1-.4477153 1-1s-.4477153-1-1-1h-.949c.5129662-5.1104059 4.8139136-9.0012508 9.95-9.0012508s9.4370338 3.8908449 9.95 9.0012508h-.951c-.5522847 0-1 .4477153-1 1s.4477153 1 1 1h4c.5522847 0 1 .4477153 1 1v1h-4.816l-8.043-5.639c-.6860314-.4765397-1.5959686-.4765397-2.282 0l-8.043 5.639h-4.816zm-13 3h14.963l-3.686 2.584c-.799713.5623066-1.2760297 1.4783862-1.277 2.456v9.96h-10zm-1 19v-2h56v2z" data-original="#000000" class="active-path" data-old_color="#000000" fill="#FFFFFF"/><path id="Shape" d="m57 0h-20c-1.6568542 0-3 1.34314575-3 3v14c0 1.6568542 1.3431458 3 3 3h3v3.15c-.0039852.7229726.4180527 1.380521 1.077 1.678.6581178.3078344 1.4358344.19886 1.984-.278l5.309-4.55h8.63c1.6568542 0 3-1.3431458 3-3v-14c0-1.65685425-1.3431458-3-3-3zm1 17c0 .5522847-.4477153 1-1 1h-11c-.5522847 0-1 .4477153-1 1 .0039097.3449499.1883552.662606.486.837l-3.486 2.987v-2.824c.5522847 0 1-.4477153 1-1s-.4477153-1-1-1h-5c-.5522847 0-1-.4477153-1-1v-14c0-.55228475.4477153-1 1-1h20c.5522847 0 1 .44771525 1 1z" data-original="#000000" class="active-path" data-old_color="#000000" fill="#FFFFFF"/><path id="Shape" d="m55 5h-16c-.5522847 0-1 .44771525-1 1s.4477153 1 1 1h16c.5522847 0 1-.44771525 1-1s-.4477153-1-1-1z" data-original="#000000" class="active-path" data-old_color="#000000" fill="#FFFFFF"/><path id="Shape" d="m55 9h-11c-.5522847 0-1 .44771525-1 1 0 .5522847.4477153 1 1 1h11c.5522847 0 1-.4477153 1-1 0-.55228475-.4477153-1-1-1z" data-original="#000000" class="active-path" data-old_color="#000000" fill="#FFFFFF"/><path id="Shape" d="m39 11h1c.5522847 0 1-.4477153 1-1 0-.55228475-.4477153-1-1-1h-1c-.5522847 0-1 .44771525-1 1 0 .5522847.4477153 1 1 1z" data-original="#000000" class="active-path" data-old_color="#000000" fill="#FFFFFF"/><path id="Shape" d="m49 13h-10c-.5522847 0-1 .4477153-1 1s.4477153 1 1 1h10c.5522847 0 1-.4477153 1-1s-.4477153-1-1-1z" data-original="#000000" class="active-path" data-old_color="#000000" fill="#FFFFFF"/></g></g></g> </svg>
