<?xml version="1.0" encoding="UTF-8"?>
<svg xmlns="http://www.w3.org/2000/svg" xmlns:xlink="http://www.w3.org/1999/xlink" width="64pt" height="64pt" viewBox="0 0 64 64" version="1.1">
<g id="surface1">
<path style=" stroke:none;fill-rule:nonzero;fill:rgb(93.333333%,82.352941%,41.568627%);fill-opacity:1;" d="M 64 32 C 64 49.671875 49.671875 64 32 64 C 14.328125 64 0 49.671875 0 32 C 0 14.328125 14.328125 0 32 0 C 49.671875 0 64 14.328125 64 32 Z M 64 32 "/>
<path style=" stroke:none;fill-rule:nonzero;fill:rgb(96.862745%,53.333333%,93.333333%);fill-opacity:1;" d="M 64 32 C 64 49.671875 49.671875 64 32 64 C 14.328125 64 0 49.671875 0 32 C 0 14.328125 14.328125 0 32 0 C 49.671875 0 64 14.328125 64 32 Z M 64 32 "/>
<path style=" stroke:none;fill-rule:nonzero;fill:rgb(96.862745%,53.333333%,93.333333%);fill-opacity:1;" d="M 62.859375 40.507812 L 51.0625 28.890625 L 44.65625 28.890625 L 33.226562 19.9375 L 19.109375 29.039062 L 17.8125 37.054688 L 43.15625 62 C 52.726562 58.4375 60.125 50.4375 62.859375 40.507812 Z M 62.859375 40.507812 "/>
<path style=" stroke:none;fill-rule:nonzero;fill:rgb(100%,100%,100%);fill-opacity:1;" d="M 12.867188 32.148438 L 29.195312 48.335938 L 33.414062 44.046875 L 24.226562 35.070312 L 51.15625 34.859375 L 51.109375 28.84375 L 24.179688 29.054688 L 33.226562 19.9375 L 28.9375 15.710938 Z M 12.867188 32.148438 "/>
</g>
</svg>
